<svg xmlns="http://www.w3.org/2000/svg" xmlns:xlink="http://www.w3.org/1999/xlink" id="svg" version="1.1" width="400" height="166.3245742641254" viewBox="0, 0, 400,166.3245742641254"><script xmlns=""/><g id="svgg"><path id="path0" d="M174.667 29.251 C 173.704 29.836,172.842 30.376,172.750 30.452 C 172.658 30.527,171.892 31.000,171.046 31.503 C 169.229 32.583,169.289 32.402,170.375 33.535 C 170.856 34.037,171.531 34.778,171.874 35.182 C 172.217 35.586,172.689 36.142,172.922 36.417 C 176.607 40.761,179.582 48.457,180.251 55.375 L 180.360 56.500 178.138 56.513 C 176.916 56.520,175.804 56.547,175.667 56.573 C 175.529 56.599,174.142 56.672,172.583 56.736 C 171.025 56.799,169.487 56.891,169.166 56.940 L 168.582 57.029 168.229 55.306 C 167.880 53.601,166.911 50.238,166.676 49.917 C 166.609 49.825,166.377 49.302,166.160 48.755 C 165.349 46.713,162.518 41.930,161.445 40.790 C 161.338 40.676,160.950 40.209,160.583 39.751 C 159.755 38.718,156.865 35.814,156.421 35.568 C 156.123 35.403,155.900 35.665,154.002 38.402 C 152.852 40.060,151.781 41.604,151.621 41.833 C 151.461 42.063,151.132 42.550,150.890 42.917 C 150.648 43.283,150.399 43.621,150.336 43.667 C 150.273 43.712,150.016 44.087,149.766 44.500 C 149.515 44.913,149.089 45.550,148.819 45.917 C 147.959 47.085,147.167 48.280,147.167 48.411 C 147.167 48.577,147.481 48.511,151.417 47.514 C 153.250 47.049,154.883 46.668,155.045 46.668 C 156.095 46.664,160.157 55.275,160.166 57.522 C 160.166 57.580,159.660 57.677,159.042 57.736 C 147.386 58.860,132.928 61.447,125.917 63.663 C 125.367 63.837,124.167 64.217,123.250 64.507 C 118.738 65.936,112.354 68.796,110.386 70.269 C 110.094 70.488,109.801 70.667,109.734 70.667 C 109.145 70.667,104.435 75.002,103.171 76.708 C 102.413 77.730,102.415 77.861,103.197 78.685 C 103.318 78.812,103.619 79.217,103.866 79.583 C 104.462 80.470,105.158 81.448,106.685 83.546 L 107.953 85.288 107.227 87.592 C 106.827 88.859,106.500 89.916,106.500 89.942 C 106.500 89.981,109.391 92.169,110.870 93.250 C 111.121 93.433,112.083 94.146,113.008 94.833 C 113.932 95.521,114.861 96.196,115.070 96.333 C 115.280 96.471,115.631 96.714,115.851 96.874 C 116.070 97.035,116.789 97.560,117.448 98.041 C 118.107 98.523,119.366 99.404,120.247 100.000 C 121.127 100.596,122.099 101.271,122.406 101.500 C 122.713 101.729,123.102 101.998,123.269 102.098 C 123.589 102.289,123.381 102.807,122.714 103.476 C 122.301 103.890,121.826 104.976,122.007 105.088 C 122.102 105.146,122.345 105.442,122.548 105.744 C 122.751 106.047,123.442 107.022,124.083 107.911 C 124.725 108.800,125.362 109.698,125.500 109.906 C 125.794 110.351,126.306 111.061,126.689 111.554 C 127.016 111.976,127.244 111.748,128.900 109.344 C 129.441 108.559,130.049 107.678,130.252 107.386 L 130.620 106.856 132.102 107.692 C 139.683 111.970,144.748 112.230,154.417 108.838 C 157.025 107.923,161.863 105.663,163.315 104.681 C 163.554 104.520,164.425 103.953,165.250 103.421 C 166.075 102.890,167.275 102.075,167.917 101.609 C 168.967 100.847,169.598 100.344,171.496 98.760 C 174.891 95.927,178.859 91.197,181.994 86.250 C 184.535 82.239,187.274 74.811,188.079 69.750 C 188.224 68.833,188.423 67.637,188.520 67.091 C 189.246 63.013,188.810 53.377,187.690 48.735 C 186.894 45.441,186.031 42.720,185.130 40.667 C 184.566 39.382,183.274 36.770,182.986 36.333 C 182.835 36.104,182.314 35.279,181.828 34.500 C 180.116 31.754,177.133 28.147,176.599 28.177 C 176.499 28.183,175.629 28.666,174.667 29.251 M180.272 65.458 C 180.222 65.802,180.131 66.496,180.070 67.000 C 179.461 72.078,176.965 78.746,174.039 83.113 C 173.470 83.962,173.441 83.980,172.272 84.189 C 167.641 85.018,159.355 83.649,155.034 81.341 C 154.878 81.258,153.899 80.769,152.858 80.254 C 151.818 79.740,150.768 79.181,150.525 79.013 C 150.282 78.845,149.502 78.348,148.792 77.908 C 147.296 76.982,147.373 77.129,147.968 76.357 C 149.290 74.644,150.998 71.731,151.893 69.667 C 152.151 69.071,152.468 68.347,152.598 68.058 C 152.727 67.769,152.833 67.417,152.833 67.276 C 152.833 66.876,152.821 66.878,158.180 66.332 C 165.482 65.587,170.843 65.224,178.667 64.944 C 179.354 64.920,180.017 64.885,180.140 64.866 C 180.305 64.842,180.339 64.994,180.272 65.458 M142.786 68.927 C 139.615 74.022,135.011 78.701,129.421 82.511 C 128.691 83.009,128.016 83.476,127.921 83.550 C 126.790 84.426,120.047 88.318,119.224 88.569 C 118.848 88.684,117.716 87.885,110.466 82.385 C 109.646 81.763,109.632 81.805,111.215 80.263 C 113.333 78.199,117.416 75.707,120.917 74.341 C 121.467 74.127,122.142 73.855,122.417 73.737 C 122.943 73.511,126.630 72.271,128.545 71.677 C 130.921 70.939,136.922 69.538,141.083 68.748 C 142.183 68.540,143.100 68.361,143.119 68.351 C 143.139 68.341,142.989 68.600,142.786 68.927 M145.333 85.764 C 147.078 86.860,151.316 89.000,153.083 89.676 C 153.817 89.957,154.642 90.288,154.917 90.412 C 155.192 90.536,155.867 90.763,156.417 90.915 C 156.967 91.068,157.717 91.300,158.083 91.430 C 158.937 91.732,163.682 92.666,164.383 92.669 C 165.568 92.675,165.497 92.874,163.867 94.126 C 156.989 99.411,148.240 102.865,142.336 102.628 L 140.417 102.551 138.333 101.459 C 137.188 100.859,135.762 100.061,135.167 99.685 C 134.571 99.310,133.746 98.813,133.333 98.581 C 132.921 98.348,131.824 97.654,130.896 97.037 C 129.968 96.421,128.674 95.562,128.021 95.128 C 126.541 94.146,126.499 94.284,128.670 93.017 C 130.334 92.046,133.264 90.150,135.167 88.813 C 136.297 88.019,139.618 85.327,140.744 84.293 L 141.739 83.379 143.244 84.388 C 144.072 84.943,145.012 85.562,145.333 85.764 M138.947 117.509 C 138.096 117.719,136.943 118.532,136.516 119.224 C 136.153 119.811,134.802 121.148,134.271 121.445 C 134.006 121.593,133.991 121.672,134.168 122.003 C 134.358 122.358,135.616 124.155,135.997 124.615 C 136.161 124.813,136.656 125.509,137.754 127.083 C 138.681 128.414,138.862 128.609,138.950 128.375 C 138.993 128.260,139.096 128.167,139.179 128.167 C 139.833 128.167,143.055 124.832,143.752 123.433 C 145.316 120.296,142.368 116.661,138.947 117.509 " stroke="none" fill="#ffffff" fill-rule="evenodd"/><path id="path1" d="M94.056 0.284 C 93.888 0.456,93.225 1.644,92.583 2.923 C 91.942 4.203,91.373 5.287,91.319 5.333 C 91.197 5.438,89.922 8.044,89.919 8.195 C 89.918 8.257,94.829 8.343,100.833 8.386 C 113.424 8.478,114.332 8.538,120.229 9.682 C 123.628 10.342,129.104 11.918,130.917 12.758 C 131.192 12.885,132.354 13.378,133.500 13.852 C 134.646 14.327,136.521 15.199,137.667 15.790 C 139.971 16.980,140.774 17.452,143.517 19.228 C 144.731 20.015,144.290 20.137,148.968 17.725 L 153.058 15.617 152.478 15.151 C 151.368 14.261,147.135 11.359,146.083 10.767 C 145.808 10.612,145.096 10.189,144.500 9.826 C 138.443 6.138,128.583 2.497,121.083 1.180 C 115.367 0.175,114.648 0.127,104.223 0.047 C 94.743 -0.026,94.351 -0.017,94.056 0.284 M84.618 18.547 C 84.472 18.659,83.909 19.612,83.366 20.667 C 82.824 21.721,81.883 23.542,81.276 24.714 C 80.131 26.924,80.101 27.207,81.052 26.845 C 81.311 26.747,82.482 26.707,83.873 26.750 C 85.975 26.815,87.084 26.910,89.583 27.242 C 89.950 27.291,91.150 27.450,92.250 27.596 C 94.386 27.879,94.611 27.919,98.271 28.670 C 103.464 29.736,109.433 31.898,113.699 34.258 L 115.039 34.999 118.395 33.300 C 120.240 32.366,122.145 31.383,122.627 31.117 L 123.503 30.633 122.877 30.134 C 121.394 28.954,115.699 25.500,115.236 25.500 C 115.189 25.500,114.590 25.237,113.905 24.917 C 108.777 22.516,101.518 20.441,94.917 19.490 C 94.183 19.384,93.433 19.265,93.250 19.225 C 92.394 19.037,88.887 18.679,87.118 18.599 C 86.037 18.551,85.091 18.473,85.017 18.427 C 84.943 18.382,84.763 18.435,84.618 18.547 M358.625 19.293 L 344.333 19.335 344.333 60.586 L 344.333 101.838 350.042 101.794 L 355.750 101.750 355.792 66.208 L 355.834 30.667 364.625 30.667 C 374.341 30.668,375.327 30.743,377.858 31.675 C 382.962 33.554,386.700 37.627,388.209 42.954 L 388.576 44.250 388.624 73.042 L 388.671 101.833 394.336 101.833 L 400.000 101.833 400.000 73.179 C 400.000 42.723,400.017 43.391,399.159 40.000 C 396.156 28.131,386.588 20.457,373.333 19.287 C 373.104 19.267,366.485 19.269,358.625 19.293 M318.083 19.449 C 306.320 20.510,294.215 27.176,288.329 35.833 C 288.111 36.154,287.890 36.454,287.837 36.500 C 287.785 36.546,287.374 37.146,286.925 37.833 C 286.475 38.521,285.975 39.282,285.812 39.524 C 285.281 40.315,283.047 44.733,282.833 45.417 C 282.717 45.783,282.566 46.158,282.497 46.250 C 282.254 46.570,281.000 50.701,280.659 52.302 C 279.741 56.610,279.790 55.194,279.718 79.375 L 279.652 101.833 307.493 101.833 L 335.333 101.833 335.333 91.474 L 335.333 81.115 331.792 81.222 C 329.844 81.281,327.556 81.330,326.708 81.331 L 325.167 81.333 325.167 85.917 L 325.167 90.500 308.076 90.500 L 290.985 90.500 291.043 74.125 L 291.102 57.750 291.629 55.333 C 291.919 54.004,292.226 52.767,292.312 52.583 C 292.397 52.400,292.670 51.650,292.918 50.917 C 293.412 49.454,295.310 45.497,295.675 45.167 C 295.726 45.121,295.947 44.783,296.167 44.417 C 296.386 44.050,296.611 43.712,296.666 43.667 C 296.722 43.621,297.188 43.021,297.703 42.333 C 303.080 35.152,311.695 30.999,321.792 30.721 L 325.500 30.619 325.500 34.612 C 325.500 39.162,325.615 39.824,326.612 40.988 C 328.307 42.969,332.286 43.091,334.045 41.217 C 335.284 39.896,335.215 40.567,335.263 29.375 L 335.306 19.333 327.028 19.361 C 322.475 19.377,318.450 19.416,318.083 19.449 M216.624 19.893 C 215.298 20.451,214.476 21.214,213.724 22.583 L 213.083 23.750 213.083 50.250 C 213.083 76.148,213.106 77.511,213.568 79.583 C 213.815 80.690,214.537 83.264,214.640 83.410 C 214.708 83.505,214.864 83.883,214.986 84.250 C 216.300 88.201,221.494 94.912,224.445 96.473 C 224.644 96.578,224.907 96.762,225.029 96.881 C 226.436 98.260,231.483 100.425,235.286 101.282 L 237.250 101.725 250.708 101.789 L 264.167 101.853 264.167 103.063 C 264.167 108.702,271.300 110.666,273.772 105.708 L 274.250 104.750 274.250 100.000 L 274.250 95.250 273.794 94.386 C 272.918 92.724,271.335 91.671,269.708 91.668 L 268.833 91.667 268.833 55.583 L 268.833 19.500 263.167 19.500 L 257.500 19.500 257.500 55.009 L 257.500 90.517 247.875 90.452 C 237.625 90.383,238.241 90.428,235.583 89.559 C 230.584 87.925,226.626 83.685,224.949 78.167 L 224.417 76.417 224.409 50.083 L 224.400 23.750 223.963 22.801 C 222.702 20.059,219.365 18.737,216.624 19.893 M79.500 63.470 C 79.179 63.629,78.542 63.900,78.083 64.071 C 77.625 64.242,76.950 64.519,76.583 64.685 C 75.665 65.103,73.480 66.007,73.125 66.116 C 72.765 66.227,72.748 66.635,73.090 66.986 C 73.232 67.131,73.865 68.037,74.497 69.000 C 75.130 69.962,75.708 70.825,75.782 70.917 C 75.856 71.008,76.141 71.421,76.416 71.833 C 76.691 72.246,76.953 72.621,77.000 72.667 C 77.129 72.796,78.114 74.235,79.440 76.235 C 80.990 78.573,81.191 80.831,80.318 86.083 C 80.227 86.633,79.932 88.433,79.664 90.083 C 79.067 93.760,77.120 103.268,76.925 103.463 C 76.885 103.504,76.509 102.817,76.089 101.938 C 75.400 100.492,74.340 98.491,73.359 96.782 C 72.926 96.027,69.678 91.173,69.034 90.318 C 67.422 88.176,66.144 86.559,64.950 85.151 C 64.748 84.913,64.283 84.357,63.917 83.915 C 63.550 83.473,63.137 82.993,63.000 82.847 C 62.862 82.702,62.231 81.983,61.596 81.250 C 60.962 80.516,59.943 79.354,59.332 78.667 C 58.721 77.979,58.077 77.244,57.902 77.033 C 57.727 76.822,57.115 76.148,56.542 75.536 C 55.969 74.923,55.500 74.377,55.500 74.321 C 55.500 73.575,53.803 74.021,49.750 75.833 C 49.200 76.079,48.356 76.420,47.875 76.590 C 46.916 76.929,46.807 77.152,47.375 77.614 C 47.581 77.781,48.022 78.255,48.355 78.667 C 48.688 79.079,49.851 80.443,50.939 81.697 C 52.027 82.951,53.329 84.480,53.833 85.095 C 54.337 85.709,54.938 86.413,55.167 86.659 C 55.396 86.906,55.883 87.465,56.250 87.903 C 56.617 88.340,57.067 88.867,57.250 89.074 C 57.433 89.281,57.958 89.915,58.417 90.484 C 58.875 91.053,59.423 91.721,59.634 91.968 C 60.479 92.955,63.323 96.852,64.402 98.500 C 65.032 99.462,65.691 100.458,65.866 100.713 C 66.235 101.251,68.586 105.858,69.116 107.083 C 70.560 110.421,72.554 118.002,72.105 118.450 C 72.056 118.499,70.982 118.372,69.717 118.169 C 64.513 117.331,60.184 116.754,50.167 115.566 C 47.371 115.234,44.708 114.905,44.250 114.834 C 43.792 114.763,41.654 114.470,39.500 114.183 C 28.057 112.659,20.435 110.604,19.477 108.785 C 19.371 108.582,19.229 108.379,19.164 108.333 C 19.098 108.287,18.847 107.875,18.606 107.417 C 18.365 106.958,17.900 106.133,17.574 105.583 C 16.826 104.322,14.727 100.032,13.945 98.167 C 12.033 93.604,11.049 90.472,9.729 84.750 C 9.687 84.567,9.541 83.856,9.405 83.171 C 9.053 81.396,9.816 81.444,2.167 82.713 C 1.056 82.897,0.734 83.096,1.008 83.426 C 1.094 83.530,1.120 83.658,1.067 83.711 C 1.014 83.764,1.051 84.207,1.151 84.695 C 2.237 90.045,2.372 90.591,3.547 94.417 C 4.210 96.574,5.749 100.632,6.708 102.750 C 7.799 105.160,9.039 107.737,9.155 107.833 C 9.210 107.879,9.465 108.329,9.721 108.833 C 10.268 109.908,10.271 109.913,11.635 112.173 C 15.589 118.727,21.862 120.645,50.583 124.083 C 59.222 125.117,65.549 125.982,69.626 126.688 C 70.946 126.916,70.937 126.894,70.436 128.628 C 70.205 129.428,69.671 131.321,69.251 132.833 C 68.395 135.912,67.911 137.562,67.072 140.257 C 65.728 144.579,67.124 147.333,70.658 147.333 C 73.314 147.333,74.206 146.263,75.600 141.401 C 75.834 140.584,76.243 139.167,76.508 138.250 C 77.594 134.494,78.204 132.333,78.600 130.833 C 78.830 129.962,79.047 129.163,79.082 129.057 C 79.225 128.618,84.060 130.679,85.059 131.605 C 85.633 132.137,85.505 132.359,86.325 129.417 C 86.708 128.042,87.211 126.242,87.441 125.417 C 87.672 124.592,87.894 123.793,87.936 123.641 C 87.993 123.433,87.691 123.212,86.715 122.745 C 85.536 122.182,84.805 121.893,82.250 120.980 C 81.780 120.812,81.431 120.588,81.449 120.466 C 81.467 120.347,81.704 119.388,81.976 118.333 C 82.247 117.279,82.701 115.479,82.983 114.333 C 83.266 113.188,83.572 111.987,83.664 111.667 C 83.910 110.808,84.932 106.539,85.420 104.333 C 87.370 95.512,88.082 91.582,88.953 84.833 C 89.187 83.019,89.217 78.369,89.002 77.139 C 88.603 74.857,87.982 73.697,84.469 68.667 C 83.669 67.521,82.842 66.330,82.632 66.020 C 82.422 65.711,82.092 65.287,81.899 65.079 C 81.706 64.870,81.502 64.580,81.446 64.433 C 81.390 64.287,81.266 64.167,81.172 64.167 C 81.077 64.167,81.000 64.066,81.000 63.942 C 81.000 63.282,80.313 63.066,79.500 63.470 M98.917 66.603 C 97.633 66.821,95.796 67.124,94.833 67.277 C 93.871 67.431,93.062 67.571,93.035 67.590 C 92.934 67.662,93.395 68.500,93.537 68.500 C 93.619 68.500,93.648 68.562,93.602 68.637 C 93.555 68.712,93.644 68.889,93.800 69.030 C 93.956 69.170,94.233 69.494,94.417 69.750 C 95.088 70.686,97.353 73.757,97.551 74.000 C 97.664 74.137,97.979 74.550,98.252 74.917 C 98.525 75.283,98.786 75.621,98.833 75.667 C 98.880 75.712,99.311 76.275,99.791 76.917 C 100.272 77.558,100.861 78.328,101.101 78.626 L 101.537 79.169 102.551 77.626 C 103.171 76.683,104.239 75.414,105.296 74.362 L 107.027 72.641 106.556 71.945 C 106.296 71.563,106.046 71.212,105.998 71.167 C 105.951 71.121,105.581 70.671,105.176 70.167 C 104.770 69.662,104.358 69.175,104.259 69.083 C 104.160 68.992,103.668 68.392,103.167 67.750 C 101.974 66.224,101.910 66.163,101.554 66.187 C 101.387 66.198,100.200 66.385,98.917 66.603 " stroke="none" fill="#ffffff" fill-rule="evenodd"/><path id="path2" d="M152.979 15.625 C 152.917 15.788,144.926 19.876,144.553 19.936 C 144.444 19.953,143.882 20.208,143.303 20.501 C 142.724 20.795,139.962 22.200,137.167 23.624 C 134.371 25.048,130.171 27.186,127.833 28.375 C 125.496 29.565,123.546 30.592,123.500 30.658 C 123.417 30.777,119.425 32.796,111.000 36.979 C 108.571 38.185,104.446 40.264,101.833 41.599 C 92.111 46.565,88.746 48.243,88.600 48.197 C 88.364 48.123,92.739 54.073,93.585 54.975 C 93.813 55.219,93.363 55.442,119.216 42.265 C 121.030 41.340,124.593 39.529,127.133 38.241 C 129.672 36.952,132.733 35.396,133.934 34.782 C 136.593 33.424,136.196 33.405,140.076 35.081 C 140.615 35.315,140.697 35.321,140.528 35.117 C 140.344 34.896,140.961 33.647,141.491 33.167 C 141.542 33.121,142.033 32.408,142.583 31.583 C 143.133 30.758,143.628 30.046,143.683 30.000 C 143.738 29.954,143.979 29.604,144.218 29.222 C 144.771 28.341,144.874 28.283,145.561 28.472 C 146.164 28.639,147.825 27.897,147.544 27.586 C 147.474 27.509,147.511 27.501,147.626 27.567 C 147.743 27.635,148.507 27.350,149.376 26.915 C 152.325 25.437,153.749 24.676,153.576 24.671 C 153.480 24.669,152.223 25.257,150.784 25.978 C 148.167 27.289,147.617 27.522,148.792 26.821 C 149.135 26.616,149.804 26.198,150.278 25.891 C 150.752 25.584,151.188 25.333,151.248 25.333 C 151.307 25.333,151.594 25.154,151.886 24.936 C 152.178 24.717,152.717 24.379,153.083 24.184 C 153.450 23.989,154.575 23.313,155.583 22.681 C 156.592 22.049,158.204 21.057,159.167 20.478 C 160.129 19.898,160.942 19.366,160.972 19.295 C 161.003 19.225,161.104 19.167,161.196 19.167 C 161.289 19.167,161.585 19.010,161.854 18.819 C 162.269 18.523,162.421 18.498,162.863 18.652 C 163.789 18.975,163.774 18.841,162.833 18.398 C 159.400 16.781,153.202 15.037,152.979 15.625 M324.803 19.292 C 326.757 19.318,329.907 19.318,331.803 19.291 C 333.699 19.265,332.100 19.243,328.250 19.243 C 324.400 19.243,322.849 19.265,324.803 19.292 M351.542 19.292 C 355.460 19.317,361.873 19.317,365.792 19.292 C 369.710 19.267,366.504 19.246,358.667 19.246 C 350.829 19.246,347.623 19.267,351.542 19.292 M133.666 44.071 C 132.527 44.470,129.652 45.579,129.083 45.840 C 128.900 45.924,128.188 46.211,127.500 46.478 C 121.750 48.708,113.668 52.796,107.417 56.636 C 104.244 58.585,99.167 62.055,99.167 62.273 C 99.167 62.315,100.304 63.841,101.695 65.665 C 104.371 69.177,104.294 69.115,105.083 68.386 C 105.953 67.582,112.332 63.455,114.833 62.078 C 115.429 61.750,116.367 61.227,116.917 60.915 C 118.372 60.090,125.934 56.333,126.139 56.333 C 126.235 56.333,126.360 56.259,126.416 56.167 C 126.483 56.059,126.362 56.061,126.070 56.172 C 125.823 56.266,125.594 56.317,125.563 56.285 C 125.512 56.235,127.891 52.726,128.307 52.237 C 128.391 52.138,128.667 51.726,128.921 51.320 C 129.175 50.915,129.435 50.546,129.498 50.500 C 129.561 50.454,129.817 50.079,130.068 49.667 C 130.318 49.254,130.745 48.617,131.016 48.250 C 131.480 47.622,132.618 45.983,133.461 44.728 C 133.668 44.419,133.935 44.167,134.054 44.167 C 134.173 44.167,134.415 44.057,134.593 43.922 C 135.006 43.609,134.966 43.616,133.666 44.071 M97.609 90.112 C 97.521 90.419,96.247 94.653,95.311 97.750 C 95.034 98.667,94.631 100.017,94.414 100.750 C 94.198 101.483,93.794 102.833,93.516 103.750 C 93.239 104.667,92.851 105.979,92.654 106.667 C 92.325 107.819,92.068 108.716,90.645 113.667 C 89.293 118.370,88.620 120.846,87.608 124.833 C 86.837 127.874,85.841 131.395,85.581 132.000 C 85.443 132.321,85.179 133.146,84.993 133.833 C 84.808 134.521,84.390 136.058,84.065 137.250 C 83.197 140.434,82.549 142.821,81.917 145.167 C 81.608 146.313,81.132 148.075,80.859 149.083 C 79.752 153.179,77.952 159.981,77.719 160.945 C 77.030 163.801,78.811 166.083,81.729 166.083 C 84.512 166.083,85.377 165.167,86.453 161.083 C 89.043 151.246,89.887 148.199,90.236 147.417 C 90.359 147.142,90.592 146.504,90.753 146.000 C 92.685 139.959,97.332 136.135,104.000 135.100 C 104.962 134.950,106.125 134.757,106.583 134.670 C 107.707 134.457,111.692 134.200,115.750 134.078 C 121.197 133.915,127.084 133.282,127.583 132.806 C 127.691 132.703,127.651 132.685,127.471 132.753 C 127.284 132.824,127.127 132.737,126.992 132.485 C 126.807 132.139,125.544 130.338,125.170 129.885 C 124.998 129.678,124.191 128.547,123.706 127.833 C 123.550 127.604,123.094 126.967,122.693 126.417 L 121.964 125.417 122.441 125.297 C 122.730 125.225,122.591 125.210,122.083 125.260 C 121.625 125.305,119.787 125.413,118.000 125.500 C 104.684 126.148,101.345 126.579,96.875 128.225 C 95.155 128.859,95.176 128.873,95.643 127.397 C 95.814 126.858,96.050 126.004,96.168 125.500 C 96.952 122.165,100.224 121.197,109.917 121.433 C 114.854 121.553,119.333 121.102,119.333 120.484 C 119.333 120.406,119.150 120.411,118.926 120.497 C 118.567 120.633,118.475 120.582,118.159 120.071 C 117.962 119.752,117.714 119.399,117.609 119.287 C 117.503 119.175,117.192 118.746,116.917 118.333 C 116.642 117.921,116.372 117.546,116.317 117.500 C 116.262 117.454,116.020 117.117,115.780 116.750 C 115.540 116.383,114.890 115.447,114.336 114.670 C 113.466 113.447,113.369 113.240,113.623 113.140 C 114.353 112.851,103.678 112.889,101.280 113.184 C 99.574 113.394,99.583 113.397,99.834 112.557 C 99.940 112.205,100.286 111.017,100.603 109.917 C 100.920 108.817,101.398 107.167,101.665 106.250 C 101.933 105.333,102.370 103.833,102.636 102.917 C 102.903 102.000,103.233 100.912,103.371 100.500 C 103.824 99.146,103.900 98.690,103.608 99.083 C 103.472 99.266,103.333 99.379,103.299 99.333 C 103.265 99.287,102.941 98.807,102.577 98.267 C 102.214 97.726,101.767 97.076,101.583 96.822 C 101.400 96.568,100.763 95.672,100.167 94.830 C 99.571 93.989,99.008 93.213,98.917 93.107 C 97.981 92.024,97.511 91.044,97.666 90.502 C 97.755 90.192,97.798 89.909,97.762 89.873 C 97.726 89.838,97.658 89.945,97.609 90.112 M392.167 113.896 C 392.167 116.755,396.492 117.734,397.792 115.169 C 398.412 113.946,398.327 113.667,397.333 113.667 C 396.693 113.667,396.500 113.726,396.500 113.924 C 396.500 114.366,395.723 115.000,395.181 115.000 C 394.669 115.000,393.833 114.304,393.833 113.877 C 393.833 113.736,393.559 113.667,393.000 113.667 C 392.404 113.667,392.167 113.732,392.167 113.896 M228.536 118.179 C 223.633 119.033,222.694 125.941,227.167 128.252 C 228.850 129.122,233.527 128.504,234.262 127.315 C 234.336 127.195,233.906 126.302,233.558 125.851 C 233.530 125.814,233.040 125.994,232.469 126.250 C 230.084 127.321,227.620 126.849,226.744 125.155 C 226.218 124.139,226.113 124.167,230.482 124.167 C 234.974 124.167,234.667 124.269,234.667 122.778 C 234.666 119.563,232.013 117.573,228.536 118.179 M262.317 118.166 C 261.330 118.337,260.598 118.721,259.993 119.385 L 259.510 119.917 259.503 119.500 C 259.485 118.487,259.351 118.333,258.481 118.333 L 257.667 118.333 257.667 125.333 L 257.667 132.333 258.750 132.333 L 259.833 132.333 259.833 130.193 L 259.833 128.052 260.792 128.376 C 264.881 129.762,268.302 127.218,268.131 122.917 C 267.992 119.407,265.745 117.571,262.317 118.166 M278.667 118.162 C 273.339 119.097,272.760 127.308,277.936 128.509 C 280.204 129.035,283.588 128.211,284.081 127.013 C 284.252 126.598,283.008 125.468,282.710 125.767 C 281.231 127.245,278.101 127.067,277.027 125.444 C 276.424 124.534,276.369 122.148,276.932 121.387 C 278.101 119.809,280.305 119.415,282.015 120.478 L 282.896 121.025 283.442 120.388 C 284.119 119.596,284.120 119.631,283.419 119.097 C 282.345 118.278,280.300 117.875,278.667 118.162 M289.583 118.106 C 284.460 118.824,283.298 125.900,287.930 128.180 C 289.224 128.817,292.066 128.778,293.277 128.107 C 298.734 125.082,295.834 117.231,289.583 118.106 M312.833 118.109 C 311.597 118.345,311.093 118.573,310.500 119.167 L 309.851 119.816 309.740 119.074 L 309.629 118.333 308.814 118.333 L 308.000 118.333 308.000 125.333 L 308.000 132.333 309.083 132.333 L 310.167 132.333 310.167 130.183 L 310.167 128.032 311.002 128.349 C 313.931 129.462,317.368 127.994,318.258 125.250 C 319.581 121.166,316.699 117.372,312.833 118.109 M323.833 118.163 C 320.105 118.834,318.368 122.859,320.272 126.417 C 321.509 128.728,325.987 129.456,328.761 127.797 L 329.634 127.275 329.211 126.596 C 328.979 126.222,328.761 125.886,328.728 125.848 C 328.695 125.810,328.236 125.997,327.709 126.264 C 325.700 127.282,323.159 126.893,322.133 125.409 C 321.257 124.141,321.152 124.178,325.708 124.128 L 329.750 124.083 329.799 122.871 C 329.931 119.611,327.304 117.538,323.833 118.163 M348.167 118.161 C 343.346 119.016,342.150 125.915,346.446 128.091 C 347.997 128.877,351.096 128.836,352.711 128.008 C 353.944 127.375,354.010 127.238,353.459 126.452 C 353.253 126.157,353.068 125.888,353.048 125.853 C 353.028 125.818,352.577 126.001,352.047 126.259 C 349.584 127.462,346.581 126.639,346.078 124.625 L 345.964 124.167 349.979 124.167 L 353.994 124.167 354.103 123.732 C 354.941 120.391,351.867 117.505,348.167 118.161 M382.153 118.161 C 376.743 119.129,376.399 127.182,381.712 128.509 C 385.594 129.479,388.911 127.134,388.915 123.417 C 388.919 119.741,386.001 117.473,382.153 118.161 M213.167 123.417 L 213.167 128.500 217.407 128.500 L 221.646 128.500 221.761 129.667 L 221.876 130.833 222.748 130.833 L 223.620 130.833 223.708 128.875 C 223.812 126.570,223.847 126.667,222.907 126.667 L 222.167 126.667 222.167 122.500 L 222.167 118.333 221.167 118.333 L 220.167 118.333 220.167 122.500 L 220.167 126.667 217.667 126.667 L 215.167 126.667 215.167 122.500 L 215.167 118.333 214.167 118.333 L 213.167 118.333 213.167 123.417 M236.000 123.417 L 236.000 128.500 237.083 128.500 L 238.167 128.500 238.167 126.333 L 238.167 124.167 240.833 124.167 L 243.500 124.167 243.500 126.341 L 243.500 128.516 244.542 128.466 L 245.583 128.417 245.627 123.375 L 245.672 118.333 244.586 118.333 L 243.500 118.333 243.500 120.417 L 243.500 122.500 240.833 122.500 L 238.167 122.500 238.167 120.417 L 238.167 118.333 237.083 118.333 L 236.000 118.333 236.000 123.417 M246.833 119.167 L 246.833 120.000 248.667 120.000 L 250.500 120.000 250.500 124.250 L 250.500 128.500 251.583 128.500 L 252.667 128.500 252.667 124.250 L 252.667 120.000 254.583 120.000 L 256.500 120.000 256.500 119.167 L 256.500 118.333 251.667 118.333 L 246.833 118.333 246.833 119.167 M297.500 123.404 L 297.500 128.500 300.510 128.500 C 304.025 128.500,304.789 128.354,305.667 127.517 C 306.938 126.305,306.931 124.520,305.651 123.447 L 305.019 122.917 305.465 122.450 C 306.138 121.747,306.113 120.291,305.414 119.461 C 304.581 118.473,304.401 118.430,300.792 118.366 L 297.500 118.308 297.500 123.404 M331.333 123.409 L 331.333 128.500 332.333 128.500 L 333.333 128.500 333.333 124.800 L 333.333 121.100 334.031 122.175 C 334.415 122.766,334.808 123.337,334.906 123.443 C 335.003 123.549,335.342 124.055,335.658 124.568 C 336.665 126.204,337.063 126.042,338.919 123.241 L 340.417 120.982 340.461 124.741 L 340.506 128.500 341.420 128.500 L 342.333 128.500 342.333 123.417 L 342.333 118.333 341.174 118.333 L 340.014 118.333 338.684 120.375 C 337.251 122.574,336.868 123.102,336.788 122.989 C 336.760 122.949,336.548 122.654,336.318 122.333 C 336.088 122.013,335.736 121.468,335.537 121.122 C 335.338 120.777,335.094 120.402,334.995 120.289 C 334.897 120.176,334.576 119.708,334.281 119.250 L 333.747 118.417 332.540 118.368 L 331.333 118.319 331.333 123.409 M355.500 123.417 L 355.500 128.500 356.583 128.500 L 357.667 128.500 357.667 126.333 L 357.667 124.167 360.333 124.167 L 363.000 124.167 363.000 126.333 L 363.000 128.500 364.000 128.500 L 365.000 128.500 365.000 123.417 L 365.000 118.333 364.000 118.333 L 363.000 118.333 363.000 120.417 L 363.000 122.500 360.333 122.500 L 357.667 122.500 357.667 120.417 L 357.667 118.333 356.583 118.333 L 355.500 118.333 355.500 123.417 M367.000 123.417 L 367.000 128.500 368.083 128.500 L 369.167 128.500 369.167 126.333 L 369.167 124.167 371.750 124.167 L 374.333 124.167 374.333 126.333 L 374.333 128.500 375.417 128.500 L 376.500 128.500 376.500 123.417 L 376.500 118.333 375.417 118.333 L 374.333 118.333 374.333 120.417 L 374.333 122.500 371.750 122.500 L 369.167 122.500 369.167 120.417 L 369.167 118.333 368.083 118.333 L 367.000 118.333 367.000 123.417 M390.333 123.417 L 390.333 128.500 391.307 128.500 C 392.366 128.500,392.516 128.368,394.885 125.329 C 394.994 125.190,395.721 124.280,396.500 123.309 L 397.917 121.542 397.962 125.021 L 398.007 128.500 399.003 128.500 L 400.000 128.500 400.000 123.417 L 400.000 118.333 399.011 118.333 C 398.085 118.333,397.999 118.367,397.642 118.875 C 397.433 119.173,397.180 119.492,397.080 119.583 C 396.980 119.675,396.587 120.162,396.205 120.667 C 395.824 121.171,395.340 121.783,395.131 122.027 C 394.921 122.271,394.262 123.092,393.667 123.851 L 392.583 125.233 392.538 121.783 L 392.493 118.333 391.413 118.333 L 390.333 118.333 390.333 123.417 M231.393 120.250 C 231.924 120.598,232.500 121.497,232.500 121.978 C 232.500 122.328,232.451 122.333,229.489 122.333 L 226.478 122.333 226.591 121.958 C 227.128 120.191,229.834 119.228,231.393 120.250 M264.503 120.228 C 268.303 122.234,265.430 127.932,261.295 126.589 C 259.873 126.127,259.833 126.056,259.833 123.966 C 259.833 120.626,261.988 118.901,264.503 120.228 M291.925 120.147 C 294.951 121.522,294.665 125.792,291.482 126.755 C 289.152 127.461,287.159 125.831,287.170 123.231 C 287.182 120.731,289.664 119.120,291.925 120.147 M315.127 120.441 C 318.626 123.230,315.022 128.339,310.958 126.351 L 310.167 125.963 310.167 124.023 C 310.168 122.340,310.215 122.007,310.522 121.503 C 311.531 119.848,313.742 119.338,315.127 120.441 M325.808 119.937 C 326.607 120.096,327.497 120.970,327.612 121.708 L 327.710 122.333 324.686 122.333 L 321.661 122.333 322.081 121.504 C 322.749 120.186,324.137 119.602,325.808 119.937 M351.012 120.342 C 351.301 120.548,351.642 120.965,351.769 121.269 C 352.226 122.364,352.304 122.333,349.083 122.333 C 345.881 122.333,345.897 122.339,346.414 121.338 C 347.140 119.934,349.669 119.386,351.012 120.342 M385.354 120.442 C 387.782 122.079,387.197 125.949,384.398 126.763 C 381.583 127.581,379.272 124.945,380.242 122.024 C 380.914 120.001,383.510 119.198,385.354 120.442 M303.394 120.345 C 303.675 120.567,303.832 120.851,303.831 121.137 C 303.825 122.096,303.299 122.333,301.178 122.333 L 299.500 122.333 299.500 121.167 L 299.500 120.000 301.228 120.000 C 302.723 120.000,303.014 120.046,303.394 120.345 M304.114 124.529 C 304.612 124.997,304.629 125.832,304.150 126.266 C 303.851 126.536,303.482 126.591,301.650 126.638 L 299.500 126.693 299.500 125.430 L 299.500 124.167 301.614 124.167 C 303.556 124.167,303.760 124.196,304.114 124.529 M248.394 138.673 C 243.741 140.101,243.581 147.258,248.167 148.807 C 250.094 149.458,252.557 149.109,253.971 147.985 C 254.704 147.403,254.708 147.275,254.017 146.600 L 253.394 145.992 252.726 146.476 C 251.844 147.115,250.608 147.377,249.484 147.164 C 249.009 147.074,248.598 147.000,248.569 147.000 C 248.113 147.000,247.064 145.290,246.916 144.306 C 246.437 141.107,250.315 138.990,252.809 141.089 L 253.295 141.498 253.917 140.739 C 254.630 139.869,254.632 139.874,253.083 139.047 C 252.164 138.556,249.473 138.341,248.394 138.673 M285.832 138.647 C 279.934 140.567,281.403 149.152,287.632 149.165 C 293.253 149.176,295.347 141.753,290.476 139.083 C 289.533 138.566,286.853 138.314,285.832 138.647 M310.248 138.713 C 307.358 139.883,305.991 143.001,307.067 145.973 C 308.170 149.019,312.640 150.158,315.950 148.236 C 316.870 147.701,316.892 147.644,316.417 147.000 C 316.194 146.698,315.987 146.379,315.958 146.291 C 315.929 146.203,315.433 146.379,314.857 146.681 C 312.266 148.039,308.833 146.829,308.833 144.558 C 308.833 144.526,310.678 144.500,312.933 144.500 L 317.033 144.500 316.971 143.042 C 316.880 140.932,316.159 139.692,314.567 138.909 C 313.773 138.518,311.037 138.394,310.248 138.713 M323.567 138.680 C 323.283 138.762,322.711 139.129,322.294 139.496 L 321.537 140.162 321.425 139.414 L 321.313 138.667 320.490 138.667 L 319.667 138.667 319.667 145.750 L 319.667 152.833 320.667 152.833 L 321.667 152.833 321.667 150.583 C 321.667 148.443,321.727 148.145,322.092 148.478 C 322.425 148.782,323.931 149.167,324.790 149.167 C 328.562 149.167,330.906 145.902,330.010 141.896 C 329.437 139.336,326.447 137.844,323.567 138.680 M335.250 138.609 C 334.557 138.792,333.000 139.552,333.000 139.708 C 333.000 140.148,333.747 141.171,333.992 141.067 C 337.098 139.754,339.667 140.263,339.667 142.190 L 339.667 142.806 339.042 142.624 C 335.369 141.554,332.155 143.261,332.366 146.170 C 332.587 149.227,337.786 150.335,339.871 147.771 L 340.159 147.417 340.163 147.777 C 340.171 148.593,341.773 149.372,342.710 149.015 C 343.190 148.833,343.231 148.698,343.063 147.854 C 342.983 147.456,342.870 147.333,342.583 147.333 C 341.939 147.333,341.865 147.022,341.804 144.083 C 341.735 140.674,341.466 139.907,340.049 139.066 C 339.254 138.595,336.355 138.319,335.250 138.609 M232.667 143.750 L 232.667 148.833 233.750 148.833 L 234.833 148.833 234.833 144.667 L 234.833 140.500 237.500 140.500 L 240.167 140.500 240.167 144.667 L 240.167 148.833 241.167 148.833 L 242.167 148.833 242.167 143.750 L 242.167 138.667 237.417 138.667 L 232.667 138.667 232.667 143.750 M257.167 143.750 L 257.167 148.833 258.163 148.833 L 259.158 148.833 261.871 145.430 L 264.583 142.027 264.628 145.430 L 264.673 148.833 265.753 148.833 L 266.833 148.833 266.833 143.750 L 266.833 138.667 265.865 138.667 L 264.896 138.667 263.490 140.436 C 261.842 142.510,260.359 144.347,259.672 145.167 L 259.183 145.750 259.175 142.208 L 259.167 138.667 258.167 138.667 L 257.167 138.667 257.167 143.750 M269.601 138.875 C 269.779 139.183,272.547 142.877,272.801 143.146 C 273.100 143.462,273.044 143.567,271.372 145.791 C 270.563 146.869,269.731 147.994,269.522 148.292 L 269.144 148.833 270.458 148.833 L 271.772 148.833 273.160 146.750 C 273.923 145.604,274.569 144.667,274.595 144.667 C 274.621 144.667,275.295 145.604,276.093 146.750 L 277.544 148.833 278.865 148.833 C 279.878 148.833,280.157 148.785,280.061 148.625 C 279.991 148.510,279.125 147.349,278.134 146.045 C 276.051 143.302,276.181 143.657,276.908 142.685 C 277.224 142.262,278.013 141.204,278.661 140.333 L 279.840 138.750 278.648 138.701 C 277.242 138.642,277.348 138.560,275.851 140.874 C 275.273 141.768,274.751 142.469,274.692 142.432 C 274.632 142.395,274.021 141.533,273.333 140.517 L 272.083 138.670 270.782 138.668 C 269.787 138.667,269.509 138.716,269.601 138.875 M295.167 139.583 L 295.167 140.500 297.083 140.500 L 299.000 140.500 299.000 144.667 L 299.000 148.833 300.000 148.833 L 301.000 148.833 301.000 144.667 L 301.000 140.500 302.833 140.500 L 304.667 140.500 304.667 139.583 L 304.667 138.667 299.917 138.667 L 295.167 138.667 295.167 139.583 M345.500 143.750 L 345.500 148.833 346.583 148.833 L 347.667 148.833 347.667 144.667 L 347.667 140.500 350.250 140.500 L 352.833 140.500 352.833 144.667 L 352.833 148.833 353.917 148.833 L 355.000 148.833 355.000 143.750 L 355.000 138.667 350.250 138.667 L 345.500 138.667 345.500 143.750 M358.167 143.750 L 358.167 148.833 359.158 148.833 C 360.119 148.833,360.162 148.814,360.616 148.182 C 360.873 147.824,362.096 146.276,363.333 144.742 L 365.583 141.953 365.628 145.393 L 365.673 148.833 366.670 148.833 L 367.667 148.833 367.667 143.750 L 367.667 138.667 366.708 138.672 C 365.761 138.677,365.744 138.686,365.173 139.463 C 364.856 139.896,364.481 140.372,364.340 140.521 C 364.199 140.669,363.221 141.887,362.167 143.227 L 360.250 145.663 360.205 142.165 L 360.160 138.667 359.163 138.667 L 358.167 138.667 358.167 143.750 M370.833 143.750 L 370.833 148.833 371.827 148.833 L 372.821 148.833 374.500 146.708 C 375.423 145.540,376.270 144.470,376.381 144.331 C 376.492 144.192,376.958 143.612,377.417 143.041 L 378.250 142.004 378.295 145.419 L 378.340 148.833 379.337 148.833 L 380.333 148.833 380.333 143.750 L 380.333 138.667 379.432 138.667 L 378.530 138.667 376.975 140.625 C 376.120 141.702,375.344 142.670,375.252 142.777 C 375.159 142.883,374.746 143.398,374.333 143.920 C 373.921 144.442,373.417 145.068,373.214 145.310 L 372.844 145.750 372.839 142.208 L 372.833 138.667 371.833 138.667 L 370.833 138.667 370.833 143.750 M289.623 140.868 C 292.106 142.511,291.163 146.893,288.248 147.257 C 284.917 147.674,282.886 143.922,285.073 141.392 C 286.078 140.230,288.276 139.977,289.623 140.868 M313.576 140.569 C 314.222 140.839,314.641 141.399,314.832 142.246 L 314.965 142.833 311.964 142.833 L 308.964 142.833 309.076 142.385 C 309.487 140.748,311.784 139.821,313.576 140.569 M326.580 140.714 C 328.391 141.740,328.547 145.115,326.849 146.544 C 325.723 147.492,323.705 147.511,322.308 146.586 L 321.667 146.162 321.667 144.433 C 321.667 141.179,324.120 139.321,326.580 140.714 M339.219 144.345 C 340.648 144.742,339.130 146.977,337.239 147.260 C 335.181 147.569,333.806 146.232,334.768 144.858 C 335.244 144.179,337.629 143.904,339.219 144.345 " stroke="none" fill="#ffffff" fill-rule="evenodd"/><path id="path3" d="M80.750 0.175 C 69.978 0.711,61.939 2.875,56.322 6.749 C 53.989 8.358,51.894 10.341,48.638 14.022 C 48.425 14.263,47.792 14.976,47.233 15.605 C 45.665 17.369,40.967 22.691,40.500 23.233 C 40.271 23.499,39.961 23.836,39.812 23.983 C 39.663 24.130,38.959 24.925,38.247 25.750 C 37.536 26.575,36.533 27.705,36.018 28.261 C 35.504 28.817,34.521 29.908,33.833 30.686 L 32.583 32.099 29.500 32.387 C 21.272 33.154,21.006 33.194,18.678 34.016 C 8.729 37.528,1.650 49.664,0.169 65.750 C -0.041 68.030,-0.042 75.492,0.167 77.812 C 0.376 80.131,0.859 83.225,0.983 83.041 C 1.038 82.960,1.571 82.812,2.167 82.714 C 2.763 82.616,4.450 82.337,5.917 82.094 C 7.383 81.852,8.715 81.687,8.875 81.728 C 9.227 81.817,9.226 81.881,8.908 79.500 C 6.692 62.919,11.962 46.306,20.708 42.302 C 22.155 41.640,27.417 40.824,30.183 40.833 C 30.410 40.833,30.464 41.194,30.552 43.292 C 30.646 45.553,30.796 46.893,31.081 48.019 C 31.185 48.428,31.113 48.491,29.887 49.075 C 22.490 52.599,16.729 60.183,15.166 68.453 C 14.979 69.441,14.749 70.625,14.653 71.083 C 13.264 77.773,16.176 92.559,21.087 103.750 C 21.208 104.025,21.759 105.300,22.311 106.583 C 22.864 107.867,23.579 109.457,23.901 110.116 L 24.487 111.316 25.619 111.667 C 27.624 112.290,35.000 113.691,35.000 113.450 C 35.000 113.398,34.025 111.410,32.833 109.032 C 31.642 106.653,30.667 104.666,30.667 104.616 C 30.667 104.565,30.404 103.956,30.083 103.261 C 29.763 102.567,29.500 101.961,29.500 101.914 C 29.500 101.868,29.354 101.512,29.175 101.123 C 28.143 98.883,26.136 93.307,25.082 89.750 C 24.685 88.410,24.477 87.548,23.576 83.500 C 21.682 74.992,23.270 66.458,27.717 61.250 C 29.668 58.965,33.667 56.108,33.667 56.999 C 33.667 57.689,37.949 65.836,38.661 66.500 C 38.710 66.546,39.200 67.258,39.750 68.083 C 40.300 68.908,40.791 69.621,40.841 69.667 C 40.892 69.712,41.114 70.012,41.335 70.333 C 41.556 70.654,42.265 71.592,42.910 72.417 C 44.250 74.130,44.183 74.048,45.983 76.188 C 47.539 78.038,47.497 77.907,46.778 78.667 C 44.491 81.084,42.673 85.016,41.695 89.667 C 41.312 91.485,41.319 99.607,41.705 101.833 C 42.427 105.997,42.888 107.823,44.364 112.364 L 45.213 114.979 45.815 115.076 C 46.678 115.215,54.741 116.149,54.772 116.113 C 54.796 116.085,53.310 112.274,53.005 111.583 C 48.824 102.113,48.782 88.575,52.920 84.437 C 53.114 84.243,52.829 83.843,51.055 81.813 C 49.904 80.495,48.689 79.079,48.356 78.667 C 48.023 78.255,47.581 77.781,47.375 77.614 C 46.807 77.152,46.916 76.929,47.875 76.590 C 48.356 76.420,49.200 76.079,49.750 75.833 C 52.985 74.387,54.652 73.814,55.036 74.015 C 55.397 74.205,55.403 74.199,55.155 73.899 C 54.933 73.631,53.567 72.021,52.270 70.500 C 51.288 69.348,50.626 68.486,50.685 68.434 C 51.646 67.580,58.159 65.987,62.667 65.504 C 64.414 65.316,69.440 65.004,70.753 65.002 C 71.577 65.000,71.596 65.012,72.165 65.875 C 72.551 66.462,72.759 66.660,72.796 66.475 C 72.826 66.324,72.978 66.162,73.134 66.114 C 73.471 66.010,75.709 65.085,76.417 64.758 C 76.692 64.630,77.329 64.367,77.833 64.172 C 78.337 63.977,79.068 63.671,79.457 63.492 C 80.316 63.096,80.308 63.097,80.733 63.458 C 81.002 63.688,80.985 63.627,80.651 63.167 C 80.418 62.846,79.152 61.083,77.838 59.250 C 75.397 55.845,74.023 53.946,72.293 51.583 C 71.024 49.850,68.711 46.676,68.406 46.250 C 68.133 45.869,66.126 43.132,64.495 40.917 C 63.888 40.092,63.255 39.208,63.089 38.953 L 62.787 38.488 64.185 38.591 C 69.117 38.951,71.483 39.945,73.496 42.500 C 73.965 43.096,74.440 43.696,74.552 43.833 C 74.664 43.971,74.979 44.383,75.252 44.750 C 75.525 45.117,75.788 45.454,75.836 45.500 C 75.885 45.546,76.632 46.521,77.497 47.667 C 78.362 48.813,79.414 50.200,79.836 50.750 C 80.664 51.829,83.737 55.863,85.497 58.181 C 86.094 58.969,87.066 60.244,87.655 61.015 C 88.244 61.786,89.554 63.504,90.566 64.833 C 92.635 67.552,92.544 67.435,93.009 68.000 C 93.340 68.402,93.345 68.403,93.163 68.027 C 92.925 67.539,92.793 67.600,94.750 67.292 C 95.667 67.148,97.646 66.830,99.149 66.585 C 101.385 66.221,101.906 66.180,102.021 66.362 C 102.098 66.484,102.163 66.518,102.164 66.438 C 102.166 66.358,101.492 65.407,100.667 64.324 C 99.842 63.242,99.167 62.315,99.167 62.266 C 99.167 62.216,98.360 61.111,97.375 59.811 C 96.390 58.511,95.209 56.953,94.752 56.349 C 94.294 55.744,93.793 55.137,93.638 55.000 C 93.293 54.694,89.197 49.282,88.418 48.102 C 88.109 47.634,87.134 46.313,86.253 45.167 C 85.372 44.021,84.109 42.371,83.448 41.500 C 79.476 36.273,78.542 35.184,76.950 33.929 C 76.064 33.230,73.105 31.667,72.668 31.667 C 71.207 31.667,76.264 28.452,79.236 27.492 C 79.882 27.284,80.323 27.052,80.286 26.941 C 80.250 26.836,80.707 25.813,81.301 24.667 C 81.895 23.521,82.824 21.721,83.366 20.667 C 83.909 19.612,84.479 18.648,84.635 18.524 C 85.030 18.206,80.888 18.369,79.167 18.739 C 73.830 19.884,68.134 23.287,62.759 28.542 C 61.698 29.579,61.144 30.003,60.842 30.010 C 57.168 30.098,47.227 30.692,45.605 30.920 L 44.960 31.010 45.689 30.130 C 46.089 29.646,46.539 29.138,46.689 29.000 C 46.839 28.863,47.807 27.775,48.841 26.583 C 49.875 25.392,50.771 24.379,50.833 24.333 C 50.894 24.287,52.330 22.675,54.024 20.750 C 62.674 10.919,67.784 8.913,85.102 8.551 C 88.474 8.481,89.949 8.394,89.936 8.267 C 89.918 8.080,91.141 5.486,91.319 5.333 C 91.373 5.287,91.942 4.203,92.583 2.923 C 93.225 1.644,93.881 0.462,94.042 0.298 C 94.364 -0.032,86.386 -0.106,80.750 0.175 M104.549 8.457 C 105.264 8.489,106.389 8.488,107.049 8.457 C 107.710 8.425,107.125 8.400,105.750 8.400 C 104.375 8.400,103.835 8.426,104.549 8.457 M53.335 40.042 C 53.835 40.706,54.414 41.496,54.621 41.798 C 54.829 42.099,55.076 42.436,55.172 42.548 C 55.267 42.659,55.946 43.575,56.680 44.583 C 57.413 45.592,58.105 46.530,58.215 46.669 C 58.326 46.808,58.901 47.595,59.493 48.419 C 60.085 49.243,61.176 50.742,61.918 51.750 C 62.660 52.758,63.780 54.280,64.405 55.131 C 65.031 55.983,65.515 56.701,65.480 56.728 C 65.445 56.755,64.479 56.871,63.333 56.985 C 56.154 57.704,51.076 58.887,46.956 60.802 L 45.495 61.481 45.274 61.115 C 45.152 60.914,44.822 60.375,44.541 59.917 C 42.197 56.100,40.134 50.791,39.425 46.750 C 39.148 45.166,38.756 40.188,38.899 40.046 C 38.990 39.954,50.061 38.943,51.921 38.857 C 52.363 38.836,52.539 38.984,53.335 40.042 M73.152 67.305 C 73.242 67.473,73.435 67.710,73.582 67.832 C 73.802 68.015,73.797 67.962,73.549 67.528 C 73.237 66.979,72.866 66.772,73.152 67.305 " stroke="none" fill="#ffffff" fill-rule="evenodd"/><path id="path4" d="M161.833 18.833 C 161.604 19.013,161.329 19.161,161.222 19.163 C 161.115 19.165,161.003 19.225,160.972 19.295 C 160.942 19.366,160.129 19.898,159.167 20.478 C 158.204 21.057,156.592 22.049,155.583 22.681 C 154.575 23.313,153.450 23.989,153.083 24.184 C 152.717 24.379,152.178 24.717,151.886 24.936 C 151.594 25.154,151.307 25.333,151.248 25.333 C 151.188 25.333,150.752 25.584,150.278 25.891 C 149.804 26.198,149.135 26.616,148.792 26.821 C 147.652 27.501,148.139 27.300,150.792 25.999 C 153.981 24.435,154.370 24.262,154.583 24.322 C 154.675 24.347,154.825 24.383,154.917 24.402 C 155.212 24.461,156.402 24.867,156.917 25.084 C 157.192 25.200,157.867 25.466,158.417 25.675 C 161.362 26.795,165.719 29.467,168.500 31.862 C 169.371 32.611,169.940 33.061,169.765 32.861 C 169.590 32.661,169.477 32.474,169.515 32.444 C 169.553 32.414,170.258 31.985,171.083 31.489 C 171.908 30.994,172.621 30.548,172.667 30.499 C 172.812 30.344,176.498 28.167,176.616 28.167 C 176.678 28.167,176.921 28.335,177.156 28.541 C 177.509 28.850,177.499 28.822,177.099 28.380 C 176.833 28.086,176.541 27.892,176.449 27.948 C 176.357 28.005,176.329 27.976,176.386 27.883 C 176.543 27.628,173.924 25.230,171.667 23.563 C 168.701 21.373,165.019 19.271,163.241 18.755 C 162.186 18.448,162.337 18.440,161.833 18.833 M144.519 28.763 C 144.325 29.010,144.167 29.262,144.167 29.324 C 144.167 29.386,144.035 29.583,143.875 29.762 C 143.715 29.940,143.133 30.760,142.583 31.585 C 142.033 32.409,141.542 33.121,141.491 33.167 C 141.441 33.212,141.155 33.617,140.855 34.066 C 140.198 35.053,140.152 34.991,142.417 36.157 C 143.333 36.629,144.383 37.201,144.750 37.428 C 145.117 37.655,145.529 37.891,145.667 37.953 C 145.804 38.016,145.992 38.131,146.083 38.210 C 146.175 38.289,146.680 38.635,147.206 38.979 L 148.161 39.605 147.289 39.820 C 144.714 40.453,138.063 42.526,135.958 43.351 C 135.523 43.522,135.167 43.620,135.167 43.569 C 135.167 43.518,134.969 43.631,134.728 43.821 C 134.486 44.011,134.187 44.167,134.063 44.167 C 133.939 44.167,133.668 44.419,133.461 44.728 C 132.618 45.983,131.480 47.622,131.016 48.250 C 130.745 48.617,130.318 49.254,130.068 49.667 C 129.817 50.079,129.561 50.454,129.498 50.500 C 129.435 50.546,129.175 50.915,128.921 51.320 C 128.667 51.726,128.391 52.138,128.308 52.237 C 128.137 52.439,126.159 55.269,125.719 55.941 C 125.436 56.372,125.437 56.376,125.820 56.254 C 126.034 56.186,126.292 56.115,126.396 56.095 C 126.499 56.075,126.883 55.927,127.250 55.766 C 127.617 55.605,128.217 55.355,128.583 55.210 C 128.950 55.066,129.325 54.894,129.417 54.829 C 129.508 54.763,129.883 54.615,130.250 54.498 C 130.617 54.381,131.387 54.071,131.963 53.809 C 132.538 53.548,133.072 53.333,133.150 53.333 C 133.228 53.333,133.920 53.081,134.687 52.772 C 137.040 51.827,145.720 48.964,146.910 48.740 C 147.307 48.666,147.457 48.576,147.323 48.494 C 147.115 48.365,147.482 47.732,148.819 45.917 C 149.089 45.550,149.515 44.913,149.766 44.500 C 150.016 44.087,150.273 43.712,150.336 43.667 C 150.399 43.621,150.648 43.283,150.890 42.917 C 151.132 42.550,151.461 42.063,151.621 41.833 C 151.781 41.604,152.858 40.052,154.014 38.384 C 155.697 35.957,156.161 35.391,156.333 35.550 C 156.501 35.705,156.524 35.705,156.436 35.550 C 156.154 35.047,151.545 31.611,149.833 30.627 C 146.095 28.478,145.036 28.107,144.519 28.763 M101.995 78.458 C 101.805 78.802,101.471 79.380,101.252 79.742 C 100.682 80.687,98.763 86.335,97.908 89.581 L 97.514 91.079 98.132 91.997 C 98.472 92.501,98.825 93.001,98.917 93.107 C 99.008 93.213,99.571 93.991,100.167 94.835 C 100.763 95.679,101.452 96.643,101.700 96.976 C 101.947 97.310,102.397 97.975,102.700 98.454 C 103.503 99.724,103.493 99.734,104.414 96.824 C 104.746 95.775,105.201 94.347,105.425 93.650 C 105.649 92.954,106.130 91.341,106.495 90.067 C 106.860 88.793,107.338 87.197,107.557 86.521 L 107.956 85.291 106.686 83.547 C 105.161 81.453,104.464 80.472,103.865 79.583 C 103.619 79.217,103.248 78.730,103.042 78.502 C 102.835 78.273,102.667 78.030,102.667 77.960 C 102.667 77.629,102.305 77.897,101.995 78.458 M120.366 106.792 C 119.536 107.960,118.699 109.142,118.506 109.417 C 116.154 112.773,115.921 112.978,114.438 113.012 C 113.252 113.038,113.245 113.138,114.336 114.670 C 114.890 115.447,115.540 116.383,115.780 116.750 C 116.020 117.117,116.262 117.454,116.317 117.500 C 116.372 117.546,116.642 117.921,116.917 118.333 C 117.192 118.746,117.503 119.175,117.609 119.287 C 117.714 119.399,117.964 119.756,118.165 120.080 C 118.365 120.404,118.585 120.634,118.653 120.592 C 118.722 120.549,119.027 120.471,119.331 120.417 C 119.636 120.363,120.091 120.173,120.343 119.993 C 120.595 119.814,120.876 119.667,120.966 119.667 C 121.300 119.667,123.013 117.616,124.987 114.852 L 127.017 112.009 126.633 111.463 C 126.423 111.163,126.205 110.879,126.150 110.833 C 126.095 110.787,125.854 110.450,125.614 110.083 C 125.374 109.717,124.686 108.742,124.086 107.917 C 123.485 107.092,122.810 106.142,122.587 105.806 C 122.363 105.470,122.101 105.146,122.004 105.086 C 121.907 105.026,121.871 104.907,121.924 104.822 C 121.977 104.736,121.987 104.667,121.948 104.667 C 121.908 104.667,121.196 105.623,120.366 106.792 M133.639 121.792 C 133.346 122.451,128.480 124.137,124.833 124.841 C 123.962 125.009,122.962 125.209,122.609 125.284 L 121.969 125.421 122.695 126.419 C 123.095 126.968,123.550 127.604,123.706 127.833 C 124.191 128.547,124.998 129.678,125.170 129.885 C 125.539 130.331,126.806 132.137,126.986 132.475 C 127.118 132.721,127.298 132.816,127.549 132.772 C 127.751 132.736,128.254 132.653,128.667 132.587 C 130.398 132.310,134.178 131.019,136.083 130.053 C 138.507 128.824,139.024 128.407,138.516 128.093 C 138.434 128.042,138.098 127.607,137.769 127.125 C 136.956 125.932,136.195 124.854,135.997 124.615 C 135.629 124.170,134.361 122.364,134.181 122.027 C 133.987 121.665,133.742 121.559,133.639 121.792 " stroke="none" fill="#ffffff" fill-rule="evenodd"/></g><script xmlns=""/></svg>